<svg xmlns="http://www.w3.org/2000/svg" xmlns:xlink="http://www.w3.org/1999/xlink" width="1000" zoomAndPan="magnify" viewBox="0 0 750 749.999995" height="1000" preserveAspectRatio="xMidYMid meet" version="1.0"><path fill="#68607c" d="M 185.253906 205.464844 L 330.082031 152.703125 L 337.164062 172.144531 L 192.335938 224.902344 Z M 185.253906 205.464844 " fill-opacity="1" fill-rule="nonzero"/><path fill="#68607c" d="M 398.714844 185.761719 L 413.34375 171.132812 L 578.863281 336.644531 L 564.234375 351.273438 Z M 398.714844 185.761719 " fill-opacity="1" fill-rule="nonzero"/><path fill="#68607c" d="M 425.300781 361.179688 L 428.117188 340.691406 L 552.257812 357.757812 L 549.441406 378.246094 Z M 425.300781 361.179688 " fill-opacity="1" fill-rule="nonzero"/><path fill="#68607c" d="M 173.828125 254.96875 L 183.078125 236.460938 L 348.601562 319.222656 L 339.347656 337.726562 Z M 173.828125 254.96875 " fill-opacity="1" fill-rule="nonzero"/><path fill="#68607c" d="M 180.664062 527.339844 L 189.929688 508.828125 L 338.105469 583 L 328.839844 601.511719 Z M 180.664062 527.339844 " fill-opacity="1" fill-rule="nonzero"/><path fill="#68607c" d="M 364.65625 385.34375 L 385.34375 385.34375 L 385.34375 561.207031 L 364.65625 561.207031 Z M 364.65625 385.34375 " fill-opacity="1" fill-rule="nonzero"/><path fill="#68607c" d="M 165.359375 452.089844 L 339.699219 183.25 L 357.058594 194.507812 L 182.71875 463.347656 Z M 165.359375 452.089844 " fill-opacity="1" fill-rule="nonzero"/><path fill="#68607c" d="M 402.175781 569.535156 L 565.457031 398.871094 L 580.40625 413.171875 L 417.125 583.839844 Z M 402.175781 569.535156 " fill-opacity="1" fill-rule="nonzero"/><path fill="#68607c" d="M 164.855469 279.632812 L 182.640625 269.0625 L 353.089844 555.9375 L 335.304688 566.507812 Z M 164.855469 279.632812 " fill-opacity="1" fill-rule="nonzero"/><path fill="#4e9bb9" d="M 219.828125 499.136719 C 219.828125 510.828125 217.136719 521.792969 212.171875 531.515625 C 200.378906 555.308594 175.757812 571.550781 147.414062 571.550781 C 107.378906 571.550781 75 539.171875 75 499.136719 C 75 459.101562 107.378906 426.722656 147.414062 426.722656 C 162 426.722656 175.449219 430.964844 186.722656 438.308594 C 206.691406 451.242188 219.828125 473.585938 219.828125 499.136719 Z M 219.828125 499.136719 " fill-opacity="1" fill-rule="nonzero"/><path fill="#91cbd7" d="M 429.929688 555.515625 C 440.898438 568.136719 447.414062 584.585938 447.414062 602.585938 C 447.414062 642.621094 415.035156 675 375 675 C 334.964844 675 302.585938 642.621094 302.585938 602.585938 C 302.585938 594.207031 304.035156 586.242188 306.621094 578.792969 C 311.585938 564.207031 321.101562 551.898438 333.515625 543.207031 C 345.207031 534.929688 359.484375 530.171875 375 530.171875 C 397.035156 530.171875 416.792969 540 429.929688 555.515625 Z M 429.929688 555.515625 " fill-opacity="1" fill-rule="nonzero"/><path fill="#ffd086" d="M 602.585938 302.585938 C 642.621094 302.585938 675 334.964844 675 375 C 675 415.035156 642.621094 447.414062 602.585938 447.414062 C 583.136719 447.414062 565.550781 439.863281 552.621094 427.242188 C 538.757812 414.207031 530.171875 395.585938 530.171875 375 C 530.171875 371.691406 530.378906 368.484375 530.898438 365.277344 C 532.964844 349.136719 540.414062 334.757812 551.378906 323.792969 C 564.515625 310.65625 582.515625 302.585938 602.585938 302.585938 Z M 602.585938 302.585938 " fill-opacity="1" fill-rule="nonzero"/><path fill="#ed6571" d="M 446.691406 353.691406 C 442.035156 389.070312 411.722656 416.378906 375 416.378906 C 334.964844 416.378906 302.585938 384 302.585938 343.964844 C 302.585938 332.277344 305.277344 321.308594 310.242188 311.585938 C 322.035156 287.792969 346.65625 271.550781 375 271.550781 C 415.035156 271.550781 447.414062 303.929688 447.414062 343.964844 C 447.414062 347.277344 447.207031 350.484375 446.691406 353.691406 Z M 446.691406 353.691406 " fill-opacity="1" fill-rule="nonzero"/><path fill="#f69489" d="M 375 75 C 415.035156 75 447.414062 107.378906 447.414062 147.414062 C 447.414062 167.484375 439.34375 185.484375 426.207031 198.621094 C 413.070312 211.757812 395.070312 219.828125 375 219.828125 C 360.414062 219.828125 346.964844 215.585938 335.691406 208.242188 C 322.550781 199.757812 312.308594 187.136719 306.929688 172.136719 C 304.136719 164.484375 302.585938 156.101562 302.585938 147.414062 C 302.585938 107.378906 334.964844 75 375 75 Z M 375 75 " fill-opacity="1" fill-rule="nonzero"/><path fill="#91cbd7" d="M 215.484375 205.449219 C 218.277344 213.101562 219.828125 221.484375 219.828125 230.171875 C 219.828125 241.863281 217.136719 252.828125 212.171875 262.550781 C 205.964844 274.964844 196.34375 285.308594 184.449219 292.34375 C 173.691406 298.863281 160.964844 302.585938 147.414062 302.585938 C 107.378906 302.585938 75 270.207031 75 230.171875 C 75 190.136719 107.378906 157.757812 147.414062 157.757812 C 178.757812 157.757812 205.34375 177.621094 215.484375 205.449219 Z M 215.484375 205.449219 " fill-opacity="1" fill-rule="nonzero"/></svg>